<?xml version="1.0" encoding="utf-8"?>
<!-- Generator: Adobe Illustrator 23.0.1, SVG Export Plug-In . SVG Version: 6.00 Build 0)  -->
<svg version="1.1" id="Layer_1" xmlns="http://www.w3.org/2000/svg" xmlns:xlink="http://www.w3.org/1999/xlink" x="0px" y="0px"
	 viewBox="0 0 250 250" style="enable-background:new 0 0 250 250;" xml:space="preserve">
<style type="text/css">
	.st0{opacity:0.5;}
	.st1{fill:#FFFFFF;}
	.st2{opacity:0.6;}
</style>
<g class="st0">
	<path class="st1" d="M168.8,73.9c-1.9,0.3-3.3,2.3-3.3,4.2c0,1.8,1.2,3.2,2.9,3.2c1.8,0,3.6-1.6,3.8-3.7
		C172.4,75.3,170.9,73.6,168.8,73.9z"/>
	<path class="st1" d="M161.5,70.5c-0.9-2.1-3.6-1.7-4.8-0.2c-1,1.2-0.8,3.3-0.8,3.3C157.2,77.8,164.1,76.8,161.5,70.5z"/>
	<path class="st1" d="M153.8,79.3c-1.6,0.4-3,1.7-3.2,3.1c-0.2,1.5,0.9,2.7,2.8,2.6c2.1,0,4-1.7,4-3.5
		C157.4,79.7,155.7,78.8,153.8,79.3z"/>
	<path class="st1" d="M161.2,83.9c-1.4,1.4-1.4,3.7-0.4,5.2c1,1.4,2.7,1.7,4.1,0.7c1.4-1.1,2-3.3,1-5.1
		C164.9,82.8,162.7,82.4,161.2,83.9z"/>
	<polygon class="st1" points="92.5,106.5 94.8,110.5 97,109.9 102.4,104.6 95.1,104.9 	"/>
	<path class="st1" d="M97.6,95l0.3,1.7l0.8,1.4c-0.1,0.2,4.5,4.7,4.5,4.5V95l-1.7-2.3L97.6,95z"/>
	<polygon class="st1" points="110.6,97.8 108.1,99.8 104.7,103.4 112.9,103.2 114.6,101.7 112.9,98.1 	"/>
	<polygon class="st1" points="104.1,112.8 105.5,114.7 109.5,113.3 109.5,110.5 104.4,105.1 	"/>
</g>
<g id="XMLID_37_" class="st2">
	<g>
		<path id="XMLID_92_" class="st1" d="M89.8,230.5c1.1-1.6,5.4-4.5,8.2-5.8l-3.3-2.9c-6.4,2.9-11.4,8.3-11.4,8.3
			c2.9,7.4,12.5,8.5,12.5,8.5c0.7-1.1,0.7-4,0.7-4C91.2,233.8,89.8,230.5,89.8,230.5z"/>
		<path id="XMLID_91_" class="st1" d="M92.6,231.3l1.7,0.8c1.4,0.3,2.1,0.4,4.3,0.3c0.3,2.2-0.1,4.2-0.7,6.7l4.4-0.5
			c1-3.7,1.2-7.2,0.5-10.6C99.9,229.2,95.4,230.3,92.6,231.3z"/>
		<path id="XMLID_88_" class="st1" d="M115.1,223.1c-1.1-0.2-3.5-0.1-3.5-0.1c-2,3.4-6.2,14.4-6.2,14.4l4.8,1.7
			c0.3-1.1,0.8-2.8,1.4-4.7l4.4-0.5c0.6,1.8,1.1,3.5,1.5,5.2l4.4-0.9c-1.7-5.5-3.5-9.7-5.9-15L115.1,223.1z M112.7,231.3
			c0.4-1.1,0.8-2.2,1.2-3.3c0.4,0.9,0.8,1.9,1.1,2.8L112.7,231.3z"/>
		<path id="XMLID_87_" class="st1" d="M140.9,225.5l-6.1,4.4c-2.2-1.4-5.2-3.1-6.9-4.1c-0.1-1.8-0.3-3-0.3-3l-4.5,0.3l1,15.2
			c0,0,2.7,0.6,4.3,0.2c0.1-2-0.1-4.8-0.2-7.6c2.8,1.4,6.7,3.6,6.7,3.6l5.7-3.7l-0.4,7.4c0,0,2.6,0.9,4.3,0.7c0.7-5,1-15.6,1-15.6
			l-4.5-0.3L140.9,225.5z"/>
		<polygon id="XMLID_86_" class="st1" points="153.6,232.2 158.7,232.4 158.8,228.6 153.4,229.1 153.3,226.4 160.1,226.1 
			160.3,222.6 148.6,223.1 149.4,238.8 160.6,238.9 161.1,234.9 153.8,234.9 		"/>
		<path id="XMLID_85_" class="st1" d="M168.8,228.1c0,0,0.7-1.6,2-2.4c0,0,0.8,0.7,1.3,1.3c0,0,1.2,0.3,2.3,0.2c0,0-0.4-3.3-2.8-5.7
			c0,0-5.9,1.5-8.3,6.8c0,0,4.3,2.6,6,5.6c0,0-3.2,1.7-6.1,2.1c0,0,0.5,1.7,1,2.4c0,0,4.1,1.1,8.2-0.8c2.4-1.1,3-3.3,3-3.3
			S172.3,230.1,168.8,228.1z"/>
		<path id="XMLID_75_" class="st1" d="M62.1,230.8c6.3,3.8,11-0.2,11-0.2C68.4,228.6,62.1,230.8,62.1,230.8z"/>
		<path id="XMLID_74_" class="st1" d="M185.6,230.8c6.3,3.8,11-0.2,11-0.2C191.9,228.6,185.6,230.8,185.6,230.8z"/>
	</g>
</g>
<g>
	<path class="st1" d="M105,168.2l-5.6,0.3c21,1.7,37.1,3.1,56.5-1.2h-10l-24,0.3L105,168.2z"/>
	<path class="st1" d="M119.3,173.3l-21-0.8c0.6,0.2,1.2,0.4,1.8,0.6l6.7,1.4c1.1,0.1,2.3,0.2,3.5,0.2
		C113.4,174.7,116.4,174.1,119.3,173.3z"/>
	<path class="st1" d="M90.9,164.4l0.6,0c0.9-1.7,3.2-3.3,4.4-3.9c1.5-0.7,3.2-0.3,4.5,0.7c0.9,0.6,2,1.8,2.7,2.9h13.4
		c0.5-0.8,32.1-0.8,43.2-0.3c1.2-0.2,2.4-0.1,3.5,0c-2.6-4-4.6-8.6-6.2-13.7c14.1-21,39.3-37.5,48.7-43.1c0-0.9-0.1-1.9-0.4-2.8
		c0,0,0,0,0,0l-0.4-20.3c0.1-0.9,0.1-1.8,0.2-2.7c-4.1-2.3-8.4-2.2-8.4-2.2c-4.3,4-4.5,9.3-1.6,15.6c-2.9,0.7-6,0.4-9.4-2.2
		c0,0-3.3-7.3-1.9-13.8c4.7-5.9,11-9.6,19.3-10.7c0.8,0.3,1.5,0.7,2.2,1.1c0-0.2,0-0.5,0-0.7l0.1,0l-0.1-0.9c0-0.5,0-1-0.1-1.5
		l-0.4-4.8l-0.6-3.7l-0.9-5.9l-1.6-1.6l1.6-2.8l0.3-10.3l0.6-4.4l0.4-4l-18.2,0.3l-5.7,0.6c-0.5,1.7-2.3,3.4-4.1,3.2
		c-1.7-0.1-2.9-1.9-3.1-3.5h-2.1l-4.7-0.6l-4.7-0.3l-6.2-0.6l-1.6,2.5l-0.9-1.2l-0.6-1.6l-13.9,0.6c0.2,0.4,0.5,0.8,0.7,1.2
		c0.1,0.1,0.1,0.2,0.2,0.4c0.2,0.4,0.4,0.7,0.6,1.1c0.1,0.2,0.2,0.4,0.3,0.6c0.1,0.2,0.2,0.4,0.3,0.6c0.1,0.2,0.2,0.5,0.4,0.7
		c0.1,0.2,0.2,0.4,0.3,0.6c0.2,0.4,0.3,0.7,0.5,1.1c0.1,0.2,0.1,0.3,0.2,0.5c0.2,0.4,0.3,0.8,0.5,1.1c0,0.1,0.1,0.1,0.1,0.2
		c0.2,0.4,0.3,0.9,0.5,1.4c0,0.1,0.1,0.2,0.1,0.4c0.2,0.5,0.3,0.9,0.5,1.4c0.3,2.1-0.9,5.8-2.2,6.2c-7.6,4-14.2,8.9-20,14.7
		c1.3,3.6,3.2,6.8,5.8,9.5l10.4-3.9l15.3-4.7l5-0.9L164,59l7.2-0.6c0,0,3.7,3.5,7.2,15.4c0.9,3.1,2.5,10.8,2.8,12.1
		c-0.3,0.2-0.5,0.6-0.6,0.9c-0.1,0.4-0.1,0.8-0.1,1.1c0,0.1,0,0.2,0,0.3c0,0.8,0.4,1.3,1,1.5l0,0c0,0,2,24.9-7.6,30.3
		c-1.7,1-5.6-1.4-8-4.1c-3-3.3-14.1-13.3-17.2-15c0,0-15.3,5.6-20.3,9.7l-0.9,0.6l-0.3,7.8l-0.6,0.3l-1.2,0.9l-0.6,1.2l0.6,0.9
		l1.9,1.6c0,0,0.1,8.1,0,12.2c-0.1,4.1-4.1,7.4-7.8,5.9l-4.7-2.2l-6.9-3.7l-10.9-7.2l-5.3-4.4l-2.5-2.2l-1.2-2.5l-0.3-1.2v-0.6
		l1.6-1.6l0.3-0.9l-0.3-0.6h-2.2l-0.9-1.9l-2.2-6.2l-2.5-10.9l5-4.4L98.8,84l13.1-7.2l7.4-3.6c-2.8-3.9-4.9-9.4-6.4-16.4
		c2.2-3.1,4.8-5.5,8.7-8.7c1,0.9,2.4,1.2,3.6,0.5c1.3-0.8,1.7-2.3,1.6-3.7c2.4-2.3,4.8-3.6,7.6-4.9c-1.3-4.3-3.7-8.1-6.8-11.6
		L113.4,29l-7.8-0.3l-12.5-0.6h-6.9l-12.2,1.6l-15.3,1.9l-1.5,14.5c1.9,1,4.8,2.4,3.9,4.9c-0.4,1-1.4,1.7-2.4,2.1
		c-0.4,0.2-1,0.4-1.5,0.6l0.2,13.3l0.1,5.7l0.3,18.3L61,93v0.9l-1.9,1.6l-1.2,1c0.3,6.5,0.9,10.4,0.8,15.2c0,0,0,0,0,0
		c2.7,3.5,5.7,6.6,8.8,9.4c9.8,10.3,17,21.2,19.3,33.4c0.8,3.5,0.9,6.8,0.6,9.7C88.6,164.4,89.8,164.5,90.9,164.4z M187.7,53.7
		c2.3,1.4,4.2,3.5,6.2,7.2c0.5,2.2-0.4,5.5-1.8,8c0-2.4-0.5-4.8-2.3-6.8c0.8,2.4,0.9,4.7,0.7,7.5c-2.4-1.7-3.9-2.8-5.6-5.3
		C183.9,61,185.1,57.4,187.7,53.7z M134.4,53.4l-9.3,5.3c2.3-1.8,4.6-3.6,7.1-5.1c0.4-0.2,0.8-0.5,1.3-0.7c0.8-0.4,1.6-0.9,2.5-1.3
		c0.5-0.2,1-0.4,1.5-0.6L134.4,53.4z M143.8,33.6c1,1.4,2.2,2.7,2.7,4.4c0.5,1.7-0.5,3.2-0.9,4.6C146.2,39.1,145.3,37,143.8,33.6z
		 M151,58.5c-2.3,0.6-4.5,1.3-6.7,2c-1.5,0.4-3.1,0.8-4.5,1.4l-0.7,0.2l5.3-2.8l2-0.9c0.9-0.3,1.8-0.5,2.7-0.8
		c2.3-0.6,4.6-0.9,7-0.9c0.7,0,1.4,0,2.1,0.1C155.7,57.3,153.3,57.9,151,58.5z M183.3,98c1.7,6.8,0.3,14.1-4.6,19.8
		C183.1,109.5,182.9,104.4,183.3,98z M163,115.8c-3.9-1.8-8-5.5-12.2-10.3C156.2,109,159.5,112.8,163,115.8z M97.5,132.3l2.2,1.9
		l2.3,2c-1.7-0.1-3.2-0.5-4.6-1.6c-0.5-0.5-1.1-1.1-1.5-1.6c-0.5-0.6-0.9-1.3-1.3-2l-1.4-2.8L97.5,132.3z M99.9,54.7
		c1.1-0.3,2.2-0.3,3.2-0.1c-1.2,0.3-2.4,0.8-3.4,1.1c-1.6,0.6-3.3,1.2-4.6,2.3C96.4,56.5,97.8,55.2,99.9,54.7z M105.6,56.2
		c3.2,1.6,5.1,3.5,6.6,5.6c-2.5-0.7-4.3-1.2-7.2-0.9c3.1,0.9,5.7,1.9,7.2,3.4c-3.5,0.3-5.3,1-8.7,1.9c-3.3-0.2-6.3-2-9-5
		C96.9,59,100.4,57.3,105.6,56.2z M83.4,125c-1.8,2.1-4.5,3.6-7.1,4c-0.1-1.4,1.3-4,1.8-4.8c-1.6,1-2.3,2.1-3.2,4
		c-0.5-3.3,1.3-6.6,4-8.9c0.9-0.6,2.9-0.9,5.6-1.3C84.9,120.6,84.5,122.9,83.4,125z"/>
	<path class="st1" d="M57.4,144.7l0.3,8.3c0,0,0,0-0.1,0.1l0.3,10.1h4.6c0.1-0.4,0.3-0.8,0.5-1c0.8-1.1,2-2.4,3.3-2.8
		c2.2-0.7,3.8,1.4,4.9,3.5h6.4c0.6,0.1,1.1,0.1,1.7,0.2c0,0,0-0.1,0-0.1c1.9-9.6-6.2-23-21-38.1c-0.1,1.3-0.3,2.6-0.4,3.9l-0.3,4.2
		l3.1,5l-3.4,1.9L57.4,144.7z"/>
	<path class="st1" d="M184.5,78.4l-0.3,0.2c0,0,0.1,0.1,0.1,0.1L184.5,78.4z"/>
	<path class="st1" d="M205.2,147.9v-8.4c0,0,0,0,0,0l-0.3-20.6c0,0,0-0.1-0.1-0.1c0-0.1,0-0.2,0-0.3c-5.7,3.7-10.4,6.7-14.9,11.3
		h-3.4l-1.2,2.8c0,0-10.8,8.9-17.8,19.3c2,5.2,4.9,9.2,8.7,12.4c0.8,0,1.5,0,2.3,0.1c0,0,0.1,0,0.1,0c3.1,0.2,7.1,0.5,10.2,0.8
		c1.1,0.1,2.1,0.2,3.2,0.2c0.8,0.1,1.7,0,2.6,0.1l11-6.1l-0.2-11.6C205.2,147.9,205.2,147.9,205.2,147.9z"/>
	<path class="st1" d="M68.2,201.2c0,0,3-2.9,3.2-6.7c0.1-3.8-2.1-7.5-6.2-8.4c-4.2-0.9-7.8-0.9-7.8-0.9l-0.5,28.6c0,0,5,3.1,10,1.4
		C72,213.4,74.9,205.6,68.2,201.2z M61.7,189.6c1.4,0.2,2.9,0.5,3.6,1.4c1.3,1.6,1.8,8.2-3.2,8.8L61.7,189.6z M62.4,210.7l-0.2-7.2
		c1.3,0,2.9,0.2,3.7,1.1C67.3,206.5,66.3,210.7,62.4,210.7z"/>
	<polygon class="st1" points="117.9,204.1 112.1,193.8 111.7,187.3 107.2,187.3 108.2,214.7 113.3,214.2 112.7,204.1 117.9,214.1 
		117.9,214.1 122.4,214.4 123.1,187 118,187.1 	"/>
	<polygon class="st1" points="179.3,187.2 174.8,187.2 175.8,214.6 176.5,214.5 187.4,214.6 187.4,209.6 180.6,209.6 	"/>
	<polygon class="st1" points="79.1,203.2 84.2,203.2 84.6,198.7 78.9,199 78.5,192 85.5,191.6 85.5,186.6 73.7,187.2 74.7,214.6 
		75.4,214.5 86.3,214.6 86.3,209.6 79.5,209.6 	"/>
	<polygon class="st1" points="141.2,191.6 145.7,191.6 145.3,215.6 150.4,215.5 150.3,191.6 154,191.6 154.8,187.1 141.2,187.5 	"/>
	<path class="st1" d="M97.3,186.6h-1.7h-2.4h-0.6l-4.8,27.9l4.7,0.7l1.6-9.2h5.4l1.7,8.4l4.9-1.5l-6.3-26.4H97.3z M94.8,201.8
		l1.8-10.5l2.1,10.3L94.8,201.8z"/>
	<path class="st1" d="M165.4,187.2h-1.7h-3.1l-4.8,27.9l4.7,0.7l1.6-9.2h5.4l1.7,8.4l4.9-1.5l-6.3-26.4H165.4z M162.8,202.3
		l1.8-10.5l2.1,10.3L162.8,202.3z"/>
	<polygon class="st1" points="199.7,188.2 194.8,199 194.7,188 190.2,187.8 189.7,215.2 194.9,215.1 194.8,205.7 200.7,215.6 
		205.3,212.9 198.3,202.8 205.3,188.2 	"/>
	<path class="st1" d="M132,190.3c3.3-0.9,2.7,4.7,2.7,4.7l4.1-1.1c0.9-8.7-7.4-8.3-7.4-8.3s-4.9-0.5-5.8,6c-0.7,5.5,3,9.3,6.3,12
		c3.3,2.7,4,8.6,0,8c-3.4-0.4-2.7-4.7-2.7-4.7l-4.2-1.2c-1.5,5.4,2,9.9,6.4,10c4.4,0.1,7.4-1.7,8.1-7c0.6-4.6-3.9-8.9-6.1-11.3
		C131.2,195.2,128.7,191.2,132,190.3z"/>
	<path class="st1" d="M139.3,204.2c0.2,0.3,0.3,0.7,0.5,1c0.4,1,0.6,2.1,0.6,3.1c0.4-0.6,0.6-1.3,0.4-2.1
		C140.6,205.2,140.1,204.6,139.3,204.2z"/>
	<path class="st1" d="M88.9,196.3c-0.4,2.3-0.4,4.4-0.3,6.4c0,0,0,0,0,0c0.2-1.8,0.5-3.6,0.8-5.5c0.4-2,0.8-4.1,1.2-6.2
		C90,192.7,89.4,194.4,88.9,196.3C88.9,196.2,88.9,196.3,88.9,196.3z"/>
	<path class="st1" d="M179.7,185.8c-0.9-0.2-1.8-0.5-2.8-0.6c0,0,0,0,0,0c-1.1,0.1-2.1,0.5-3.1,1.1c0,0,0,0,0,0
		c0.9-0.2,1.8-0.3,2.7-0.3C177.7,185.9,178.7,185.8,179.7,185.8z"/>
</g>
<g class="st2">
	<path class="st1" d="M54.5,175.1c-2.6-0.8-5.6-0.8-9,0c-1.6,1.7-4.5,6.5-4.1,9.7c3.6,0.3,6.8-0.2,9.7-1.9c2-1.8,3.3-3.9,4.1-6.2
		c-1.6,0.1-3.4,0.6-5.3,1.6C51,176.8,52.5,175.8,54.5,175.1z"/>
	<path class="st1" d="M112.2,61.8c-1.4-2.1-3.3-4.1-6.6-5.6c-5.3,1.1-8.8,2.8-11.2,5c2.8,3,5.8,4.8,9,5c3.5-0.8,5.2-1.5,8.7-1.9
		c-1.5-1.5-4.1-2.6-7.2-3.4C107.9,60.6,109.7,61.1,112.2,61.8z"/>
	<path class="st1" d="M39.8,86.1c0.5-3.7-1.5-7.3-4.4-9.8c-1-0.6-3.2-0.9-6.2-1.4c-0.4,3,0,5.5,1.2,7.8c2,2.3,5,4,7.8,4.4
		c0.1-1.5-1.4-4.4-2-5.3C38,82.9,38.7,84.1,39.8,86.1z"/>
	<path class="st1" d="M78.2,124.1c-0.5,0.8-1.9,3.4-1.8,4.8c2.6-0.3,5.3-1.8,7.1-4c1.1-2,1.5-4.4,1.1-7.1c-2.7,0.4-4.7,0.7-5.6,1.3
		c-2.7,2.2-4.5,5.6-4,8.9C75.9,126.2,76.6,125.1,78.2,124.1z"/>
	<path class="st1" d="M190.5,69.6c0.2-2.8,0.1-5.1-0.7-7.5c1.8,1.9,2.3,4.3,2.3,6.8c1.4-2.5,2.3-5.8,1.8-8c-2-3.7-3.9-5.8-6.2-7.2
		c-2.6,3.7-3.7,7.3-2.8,10.6C186.6,66.8,188.1,67.9,190.5,69.6z"/>
	<path class="st1" d="M67.6,121.1C59.9,114.3,53.1,105,48.4,95c3-5.6,5.9-10.2,9.3-14l-0.2-14.2c-7.1,7.9-13.5,17-18.9,27.1
		c1.3,3.2,2.7,6.4,4.2,9.4c3.6,7.2,8,14.1,13.7,19.7c16,15.8,24.8,29.9,22.8,39.9c-0.9,6.1-4.9,10.1-11.8,9.6
		c-6.6-1.8-11.9-6.8-13.1-16.8c1-1.1,2.4-2.1,3.2-2.7l-0.3-8.3c-3.8,1.2-8,4.6-12,8.9c0.8,6,2.9,11.4,5.9,16.2
		c0,0,12.8,16.8,26.1,9.7c8.1-4.3,12-13.3,9.5-25C84.5,142.3,77.3,131.4,67.6,121.1z"/>
	<path class="st1" d="M212,132.3c-0.5,3.5,0,6.1,1.6,7.8c1.3-1.1,2.2-2.4,2.8-4.1c0.2,1.4-0.2,2.8-0.9,4.4c2-1.2,3.8-2.5,5-4.4
		c1.2-3.9-1.6-10.6-1.6-10.6C216.8,128.4,214.5,130.7,212,132.3z"/>
	<path class="st1" d="M133.5,53c-0.4,0.2-0.9,0.5-1.3,0.7c-2.4,1.5-4.7,3.3-7.1,5.1l9.3-5.3l3-2.4c-0.5,0.2-1,0.4-1.5,0.6
		C135.1,52.1,134.2,52.5,133.5,53z"/>
	<path class="st1" d="M205.2,139.5v8.4c1.6-0.1,3,0.1,4.1,0.6c2.2,3.4,3.8,8.1,3.1,13.1c-3.7,7.5-19.6,7.8-31.6,6.1
		c-6-3.8-10.5-8.6-13.3-15.8c6.9-10.5,17.8-19.3,17.8-19.3l1.2-2.8h3.4c7.2-7.5,15.1-10.7,26.4-19.2c3.8-6.7,5.2-13.9,4.5-21.7
		c0-0.2,0-0.3,0-0.5c0-0.2,0-0.4-0.1-0.6c-0.1-0.4-0.1-0.9-0.2-1.3c-0.1,0-0.3,0.1-0.4,0.1c0,0-0.1,0-0.1,0c-0.3,0-0.5,0.1-0.8,0.1
		c0,0,0,0-0.1,0c-0.3,0-0.6,0-0.8,0c0,0,0,0,0,0c-0.3,0-0.5-0.1-0.8-0.2c0,0,0,0,0,0c-0.1,0-0.2-0.1-0.3-0.2l0,0
		c-0.3-0.2-0.5-0.5-0.6-0.9c-0.3-1,0.1-2.2,0.3-3.1c0.2-0.6,0.3-1.2,0.5-1.8c-1.1-1.6-6.5-9.1-14.2-12.6
		c-8.2,1.1-14.5,4.8-19.3,10.7c-1.4,6.5,1.9,13.8,1.9,13.8c3.4,2.5,6.5,2.8,9.4,2.2c-2.9-6.3-2.8-11.6,1.6-15.6
		c0,0,8.3-0.2,12.7,6.2c1.6,2.4,2.2,5.9,1.9,9.8c0.1,0.1,0.3,0.1,0.4,0.2c0.9,0.7,1.5,1.8,1.7,2.9c0.4,2.1-1.3,3.2-3.1,3.2
		c-0.2,0.8-0.7,2.8-0.9,3.5c0,0-34.8,19.1-52.3,45.2c3.8,11.9,9.7,21.2,19.7,25.3c14.7,1.4,35.1,1.3,41.7-8.7
		c3.7-6.9,1.1-16.7-6.4-26.2C209.6,139.8,207.3,139.3,205.2,139.5z M184.3,78.7c0,0-0.1-0.1-0.1-0.1l0.3-0.2L184.3,78.7z"/>
	<path class="st1" d="M143.5,37.6c0-0.1-0.1-0.2-0.1-0.4c-0.2-0.5-0.3-0.9-0.5-1.4c0-0.1-0.1-0.1-0.1-0.2c-0.1-0.4-0.3-0.8-0.5-1.1
		c-0.1-0.2-0.1-0.3-0.2-0.5c-0.2-0.4-0.3-0.7-0.5-1.1c-0.1-0.2-0.2-0.4-0.3-0.6c-0.1-0.2-0.2-0.5-0.4-0.7c-0.1-0.2-0.2-0.4-0.3-0.6
		c-0.1-0.2-0.2-0.4-0.3-0.6c-0.2-0.4-0.4-0.7-0.6-1.1c-0.1-0.1-0.1-0.2-0.2-0.4c-0.5-0.8-1-1.7-1.6-2.5c0,0,0-0.1-0.1-0.1
		c-2.3-3.3-5-6.2-8.1-8.9c-0.4,0.1-0.8,0.2-1.2,0.3c-0.9,0.3-1.8,0.4-2.7,0.3c-0.6-0.1-0.9-0.5-0.8-1.1c0.1-0.3,0.1-0.7,0.1-1
		c-0.1-0.6-0.1-1.3,0-2c-1.6-1.1-3.3-2.1-5-3.1c-10.2,4.2-19.2,10-27.1,17.2l12.5,0.6c4.7-3.8,9.9-6.8,13.4-7.8
		c7.5,5.3,12.9,11.5,15.3,19c-2.8,1.4-5.3,2.6-7.6,4.9c0.1,1.4-0.2,2.9-1.6,3.7c-1.3,0.7-2.6,0.4-3.6-0.5c-3.9,3.2-6.5,5.6-8.7,8.7
		c1.5,7,3.7,12.6,6.6,16.5l8.4-3.7c-2.6-2.7-4.6-6-5.9-9.7c5.7-5.7,12.4-10.7,20-14.7c1.2-0.4,2.5-4.2,2.2-6.2
		C143.9,38.5,143.7,38.1,143.5,37.6z"/>
	<path class="st1" d="M143.8,33.6c1.5,3.3,2.4,5.5,1.8,9.1c0.4-1.5,1.4-3,0.9-4.6C146,36.3,144.9,35,143.8,33.6z"/>
	<path class="st1" d="M161.5,174.7c0.1-1.5,1.2-3.9,2.8-5.5c-2.8,0.3-5,1.3-6.6,3.1c-1.2,3.2-1.7,6.3-1.2,9.4c3-1.7,8.4-2.3,9.7-4.4
		c0.7-2.4,0.6-4.9-0.3-7.5C164.1,170.9,162.4,173.1,161.5,174.7z"/>
	<path class="st1" d="M99.9,54.7c-2.1,0.6-3.5,1.9-4.8,3.3c1.4-1,3-1.7,4.6-2.3c1-0.4,2.2-0.8,3.4-1.1
		C102.1,54.4,101,54.4,99.9,54.7z"/>
</g>
</svg>
